<?xml version="1.0" encoding="UTF-8" standalone="no" ?>
<!DOCTYPE svg PUBLIC "-//W3C//DTD SVG 1.1//EN" "http://www.w3.org/Graphics/SVG/1.1/DTD/svg11.dtd">
<svg xmlns="http://www.w3.org/2000/svg" xmlns:xlink="http://www.w3.org/1999/xlink" version="1.1" width="1920" height="1000" viewBox="0 0 1920 1000" xml:space="preserve">
<desc>Created with Fabric.js 4.6.0</desc>
<defs>
</defs>
<g transform="matrix(9.88 0 0 0.51 960 50)" id="-QcW17aruNUyoMXaQifra"  >
<path style="stroke: rgb(62,236,212); stroke-width: 0; stroke-dasharray: none; stroke-linecap: butt; stroke-dashoffset: 0; stroke-linejoin: miter; stroke-miterlimit: 4; fill: rgb(62,236,212); fill-rule: nonzero; opacity: 1;" vector-effect="non-scaling-stroke"  transform=" translate(0, 0)" d="M -97.16599 -97.16599 L 97.16599 -97.16599 L 97.16599 97.16599 L -97.16599 97.16599 z" stroke-linecap="round" />
</g>
<g transform="matrix(9.88 0 0 0.13 960 112.5)" id="6qyfZ4LyJu93cVTxSdSW1"  >
<path style="stroke: rgb(62,194,236); stroke-opacity: 0.58; stroke-width: 0; stroke-dasharray: none; stroke-linecap: butt; stroke-dashoffset: 0; stroke-linejoin: miter; stroke-miterlimit: 4; fill: rgb(178,242,255); fill-rule: nonzero; opacity: 0.8;" vector-effect="non-scaling-stroke"  transform=" translate(0, 0)" d="M -97.16599 -97.16599 L 97.16599 -97.16599 L 97.16599 97.16599 L -97.16599 97.16599 z" stroke-linecap="round" />
</g>
<g transform="matrix(4.25 0 0 4.63 1507.5 550)" id="O5v2gM2LhXU7429Ew271f"  >
<path style="stroke: rgb(62,194,236); stroke-opacity: 0.58; stroke-width: 0; stroke-dasharray: none; stroke-linecap: butt; stroke-dashoffset: 0; stroke-linejoin: miter; stroke-miterlimit: 4; fill: rgb(178,242,255); fill-rule: nonzero; opacity: 0.8;" vector-effect="non-scaling-stroke"  transform=" translate(0, 0)" d="M -97.16599 -97.16599 L 97.16599 -97.16599 L 97.16599 97.16599 L -97.16599 97.16599 z" stroke-linecap="round" />
</g>
<g transform="matrix(0.36 0 0 0.36 760 50)" id="mTLY9Ule1S3mELYMbxRIL"  >
<path style="stroke: rgb(32,125,224); stroke-width: 1; stroke-dasharray: none; stroke-linecap: butt; stroke-dashoffset: 0; stroke-linejoin: miter; stroke-miterlimit: 4; fill: rgb(252,181,71); fill-rule: nonzero; opacity: 1;" vector-effect="non-scaling-stroke"  transform=" translate(0, 0)" d="M 0 -69.44444 C 38.33333 -69.44444 69.44444 -38.333330000000004 69.44444 0 C 69.44444 38.33333 38.333330000000004 69.44444 0 69.44444 C -38.33333 69.44444 -69.44444 38.333330000000004 -69.44444 0 C -69.44444 -38.33333 -38.333330000000004 -69.44444 0 -69.44444 z" stroke-linecap="round" />
</g>
<g transform="matrix(0.47 0 0 0.47 890 50)" id="jrGYvha2wYGfaZARu-yvg"  >
<path style="stroke: rgb(32,125,224); stroke-width: 1; stroke-dasharray: none; stroke-linecap: butt; stroke-dashoffset: 0; stroke-linejoin: miter; stroke-miterlimit: 4; fill: rgb(252,181,71); fill-rule: nonzero; opacity: 1;" vector-effect="non-scaling-stroke"  transform=" translate(0, 0)" d="M -53.19149 -53.19149 L 53.19149 -53.19149 L 53.19149 53.19149 L -53.19149 53.19149 z" stroke-linecap="round" />
</g>
<g transform="matrix(0.63 0 0 0.7 695 50)" id="KAXVsNZMiul_f-Tk6uH06"  >
<path style="stroke: rgb(32,125,224); stroke-width: 1; stroke-dasharray: none; stroke-linecap: butt; stroke-dashoffset: 0; stroke-linejoin: miter; stroke-miterlimit: 4; fill: rgb(252,181,71); fill-rule: nonzero; opacity: 1;" vector-effect="non-scaling-stroke"  transform=" translate(-40, -40)" d="M 60 4.346 C 71 4.346 80 13.973 80 25.738 C 80 58.45 40 74.762 40 75.65299999999999 L 40 75.65299999999999 C 40 74.763 0 58.54 0 25.738 C 0 13.884 9 4.346 20 4.346 C 31.1 4.346 40 10.835 40 22.689 C 40 10.835 48.9 4.346 60 4.346 z" stroke-linecap="round" />
</g>
<g transform="matrix(0.07 0 0 0.07 250 50)" id="-GFX_PgyzTZeWkBzDUBve"  >
<g style="" vector-effect="non-scaling-stroke"   >
		<g transform="matrix(0.78 0 0 0.78 0.04 -33.28)" id="uCQjCx5J3H1tvP0z4KZik"  >
<path style="stroke: none; stroke-width: 1; stroke-dasharray: none; stroke-linecap: butt; stroke-dashoffset: 0; stroke-linejoin: miter; stroke-miterlimit: 4; fill: rgb(54,136,255); fill-rule: nonzero; opacity: 1;" vector-effect="non-scaling-stroke"  transform=" translate(-512.05, -469.4)" d="M 768 810.7 C 744.4 810.7 725.3 791.6 725.3 768 C 725.3 744.4 744.4 725.3 768 725.3 C 862.1 725.3 938.7 648.6999999999999 938.7 554.5999999999999 C 938.7 464.9999999999999 868.6 390.2999999999999 779.2 384.4999999999999 L 754 383 L 743.3 360.3 C 701.0999999999999 271 610.3 213.3 511.99999999999994 213.3 C 413.69999999999993 213.3 322.9 271 280.69999999999993 360.3 L 270 383 L 244.9 384.6 C 155.4 390.40000000000003 85.4 465.1 85.4 554.7 C 85.4 648.8000000000001 162 725.4000000000001 256.1 725.4000000000001 C 279.70000000000005 725.4000000000001 298.8 744.5000000000001 298.8 768.1000000000001 C 298.8 791.7000000000002 279.7 810.8000000000002 256.1 810.8000000000002 C 114.90000000000003 810.8000000000002 0.10000000000002274 696.0000000000002 0.10000000000002274 554.8000000000002 C 0.10000000000002274 428.70000000000016 92.60000000000002 322.3000000000002 214.8 302.4000000000002 C 274.8 195.7 388.9 128 512 128 C 635.1 128 749.2 195.7 809.3 302.2 C 931.5 322.1 1024 428.6 1024 554.7 C 1024 695.8000000000001 909.2 810.7 768 810.7 z" stroke-linecap="round" />
</g>
		<g transform="matrix(0.78 0 0 0.78 0.04 133.32)" id="V9CdIf71vGGouJ503vyhv"  >
<path style="stroke: none; stroke-width: 1; stroke-dasharray: none; stroke-linecap: butt; stroke-dashoffset: 0; stroke-linejoin: miter; stroke-miterlimit: 4; fill: rgb(95,99,121); fill-rule: nonzero; opacity: 1;" vector-effect="non-scaling-stroke"  transform=" translate(-512.05, -682.65)" d="M 640 789.3 C 629.1 789.3 618.2 785.0999999999999 609.8 776.8 L 512 679 L 414.2 776.8 C 397.59999999999997 793.5 370.5 793.5 353.9 776.8 C 337.2 760.0999999999999 337.2 733.0999999999999 353.9 716.5 L 481.9 588.5 C 498.5 571.8 525.6 571.8 542.1999999999999 588.5 L 670.1999999999999 716.5 C 686.9 733.2 686.9 760.2 670.1999999999999 776.8 C 661.8 785.1999999999999 650.9 789.3 639.9999999999999 789.3 z" stroke-linecap="round" />
</g>
		<g transform="matrix(0.78 0 0 0.78 0 200)" id="GZknyvQ6ke5f3C4UyLkwK"  >
<path style="stroke: none; stroke-width: 1; stroke-dasharray: none; stroke-linecap: butt; stroke-dashoffset: 0; stroke-linejoin: miter; stroke-miterlimit: 4; fill: rgb(95,99,121); fill-rule: nonzero; opacity: 1;" vector-effect="non-scaling-stroke"  transform=" translate(-512, -768)" d="M 512 960 C 488.4 960 469.3 940.9 469.3 917.3 L 469.3 618.7 C 469.3 595.1 488.40000000000003 576 512 576 C 535.5999999999999 576 554.7 595.1 554.7 618.7 L 554.7 917.4000000000001 C 554.7 940.9000000000001 535.6 960.0000000000001 512 960.0000000000001 z" stroke-linecap="round" />
</g>
</g>
</g>
<g transform="matrix(0.17 -0.3 0.3 0.17 1235.65 869.86)" id="OKmn8lGobnVRDhf42JMN8"  >
<path style="stroke: none; stroke-width: 1; stroke-dasharray: none; stroke-linecap: butt; stroke-dashoffset: 0; stroke-linejoin: miter; stroke-miterlimit: 4; fill: rgb(35,31,32); fill-rule: nonzero; opacity: 1;" vector-effect="non-scaling-stroke"  transform=" translate(-300, -300)" d="M 40.389 450.868 C -13.565999999999995 413.1 15.860000000000003 355.229 47.014 293.96500000000003 C 70.21600000000001 248.32000000000002 92.134 205.21500000000003 79.37700000000001 169.56900000000002 C 72.77400000000002 151.11300000000003 57.641000000000005 136.91700000000003 33.11200000000001 126.17000000000002 C 30.506000000000007 125.02500000000002 27.46100000000001 126.21500000000002 26.32100000000001 128.82100000000003 C 25.17600000000001 131.42900000000003 26.364000000000008 134.47200000000004 28.97000000000001 135.61400000000003 C 50.759000000000015 145.16300000000004 64.07300000000001 157.40600000000003 69.66400000000002 173.04500000000002 C 80.92800000000001 204.50600000000003 59.984000000000016 245.68900000000002 37.81500000000001 289.289 C 6.035000000000011 351.789 -26.819999999999993 416.409 34.48100000000001 459.32399999999996 C 50.91400000000001 470.82899999999995 68.81400000000001 476.57599999999996 87.67600000000002 476.57599999999996 C 107.28800000000001 476.57599999999996 127.93700000000001 470.35799999999995 149.05800000000002 457.943 C 162.55400000000003 450.003 175.74900000000002 439.64799999999997 188.07800000000003 427.763 C 201.68100000000004 434.313 218.53100000000003 439.616 239.38400000000001 442.842 C 248.036 444.18 256.502 444.812 264.844 444.812 C 414.577 444.785 514.385 239.304 534.5 194.15200000000002 L 590.69 270.45300000000003 C 592.215 272.54 595.057 273.16100000000006 597.326 271.91900000000004 C 599.595 270.672 600.585 267.93800000000005 599.648 265.53000000000003 L 545.763 126.71800000000002 C 545.142 125.11000000000001 543.7510000000001 123.92200000000001 542.071 123.55000000000001 C 540.38 123.17000000000002 538.62 123.671 537.383 124.86900000000001 L 419.25300000000004 238.592 C 417.23100000000005 240.53400000000002 417.134 243.739 419.033 245.8 C 420.15700000000004 247.014 421.725 247.56 423.25600000000003 247.443 C 421.81100000000004 249.38000000000002 421.891 252.104 423.53900000000004 253.955 C 425.36400000000003 255.994 428.46200000000005 256.261 430.59200000000004 254.57000000000002 L 522.8280000000001 181.50900000000001 C 525.0640000000001 179.74 525.4390000000001 176.49800000000002 523.6730000000001 174.264 C 521.9020000000002 172.038 518.6650000000001 171.644 516.4280000000001 173.424 L 494.1150000000001 191.09900000000002 L 535.1520000000002 150.062 C 537.1210000000002 148.09300000000002 537.1700000000002 144.91400000000002 535.2590000000001 142.883 C 534.9810000000001 142.586 534.6700000000001 142.32600000000002 534.3440000000002 142.11 L 538.9500000000002 137.674 L 576.0010000000002 233.11200000000002 L 537.4800000000002 180.80300000000003 C 536.3720000000003 179.29900000000004 534.5200000000002 178.50700000000003 532.7010000000002 178.74300000000002 C 530.8550000000002 178.96800000000002 529.2710000000003 180.17400000000004 528.5590000000002 181.89400000000003 C 527.4140000000002 184.67100000000002 412.0670000000002 459.11300000000006 240.9670000000002 432.64200000000005 C 222.8170000000002 429.8380000000001 207.9730000000002 425.4080000000001 195.83700000000022 419.96000000000004 C 236.5800000000002 377.29100000000005 265.9250000000002 318.89500000000004 261.8470000000002 279.586 C 259.9530000000002 261.365 250.8240000000002 248.99900000000002 235.4340000000002 243.81400000000002 C 211.7450000000002 235.841 186.03800000000018 243.23600000000002 164.89600000000019 264.127 C 136.53600000000017 292.145 124.67700000000019 336.249 136.04800000000017 371.394 C 141.45800000000017 388.106 153.28400000000016 407.722 178.58400000000017 422.684 C 167.72100000000017 432.85600000000005 156.0450000000002 441.857 143.82400000000018 449.048 C 117.54 464.503 78.264 477.378 40.389 450.868 z M 145.863 368.222 C 135.642 336.63399999999996 146.446 296.849 172.142 271.464 C 185.712 258.06 201.257 251.018 216.492 251.018 C 221.779 251.018 227.023 251.863 232.13799999999998 253.586 C 243.57799999999997 257.444 250.123 266.546 251.58399999999997 280.651 C 255.10499999999996 314.577 227.63299999999998 372.807 186.25799999999998 415.161 C 161.933 401.543 150.813 383.51 145.863 368.222 z" stroke-linecap="round" />
</g>
<g transform="matrix(0.06 0 0 0.06 1100 50)" id="slTN6Lt0dMCNXm-NAb3IV"  >
<g style="" vector-effect="non-scaling-stroke"   >
		<g transform="matrix(0.78 0 0 0.78 174.33 71.67)" id="z5uVc60VCNLXjkU6X72PD"  >
<path style="stroke: none; stroke-width: 1; stroke-dasharray: none; stroke-linecap: butt; stroke-dashoffset: 0; stroke-linejoin: miter; stroke-miterlimit: 4; fill: rgb(241,103,35); fill-rule: nonzero; opacity: 1;" vector-effect="non-scaling-stroke"  transform=" translate(-735.14, -603.74)" d="M 750.025693 380.495241 L 742.584095 380.495241 L 742.584095 373.053642 C 742.584095 369.01441400000004 739.181724 365.612043 735.142496 365.612043 C 731.1032680000001 365.612043 727.700897 369.01441400000004 727.700897 373.053642 L 727.700897 380.495241 L 720.259299 380.495241 C 716.2200710000001 380.495241 712.8177000000001 383.89761200000004 712.8177000000001 387.936839 C 712.8177000000001 391.976066 716.2200710000001 395.378438 720.259299 395.378438 L 727.700897 395.378438 L 727.700897 402.820036 C 727.700897 406.859264 731.1032680000001 410.261635 735.142496 410.261635 C 739.181724 410.261635 742.584095 406.859264 742.584095 402.820036 L 742.584095 395.378438 L 750.025693 395.378438 C 754.064921 395.378438 757.467292 391.976067 757.467292 387.936839 C 757.467292 383.89761100000004 754.064921 380.49524 750.025693 380.495241 z M 735.142496 841.87435 C 723.0237890000001 841.87435 713.242613 832.094197 713.242613 819.974467 C 713.242613 807.85576 723.022766 798.074584 735.142496 798.074584 C 747.262226 798.074584 757.0423790000001 807.854737 757.0423790000001 819.974467 C 757.0413550000001 832.094198 747.2612020000001 841.87435 735.142496 841.87435 z M 735.142496 812.9588050000001 C 731.3152130000001 812.9588050000001 728.12581 816.1482080000001 728.12581 819.9754910000001 C 728.12581 823.8027740000001 731.315213 826.9921770000002 735.142496 826.9921770000002 C 738.9697790000001 826.9921770000002 742.1591820000001 823.8027740000002 742.1591820000001 819.9754910000001 C 742.1581580000001 816.1482080000002 738.9687550000001 812.9588050000001 735.142496 812.9588050000001 z" stroke-linecap="round" />
</g>
		<g transform="matrix(0.78 0 0 0.78 -209.05 207.38)" id="mgQzObM4lVfwXPMoTX6MY"  >
<path style="stroke: none; stroke-width: 1; stroke-dasharray: none; stroke-linecap: butt; stroke-dashoffset: 0; stroke-linejoin: miter; stroke-miterlimit: 4; fill: rgb(0,0,0); fill-rule: nonzero; opacity: 1;" vector-effect="non-scaling-stroke"  transform=" translate(-244.42, -777.45)" d="M 244.421905 777.451485 M 239.95674100000002 777.451485 C 239.95674100000002 779.9175269826935 241.95586301730657 781.916649 244.42190500000004 781.916649 C 246.88794698269348 781.916649 248.88706900000003 779.9175269826935 248.88706900000003 777.451485 C 248.88706900000003 774.9854430173066 246.88794698269348 772.9863210000001 244.42190500000004 772.9863210000001 C 241.95586301730657 772.9863210000001 239.95674100000002 774.9854430173066 239.95674100000002 777.451485 Z" stroke-linecap="round" />
</g>
		<g transform="matrix(0.78 0 0 0.78 -226.65 -153.23)" id="_WQy80iDdeWyQH1eSd2Zs"  >
<path style="stroke: none; stroke-width: 1; stroke-dasharray: none; stroke-linecap: butt; stroke-dashoffset: 0; stroke-linejoin: miter; stroke-miterlimit: 4; fill: rgb(0,0,0); fill-rule: nonzero; opacity: 1;" vector-effect="non-scaling-stroke"  transform=" translate(-221.89, -315.86)" d="M 221.885165 315.860432 M 217.420001 315.860432 C 217.420001 318.32647398269347 219.41912301730656 320.325596 221.88516500000003 320.325596 C 224.35120698269347 320.325596 226.35032900000002 318.32647398269347 226.35032900000002 315.860432 C 226.35032900000002 313.39439001730653 224.35120698269347 311.395268 221.88516500000003 311.395268 C 219.41912301730656 311.395268 217.420001 313.39439001730653 217.420001 315.860432 Z" stroke-linecap="round" />
</g>
		<g transform="matrix(0.78 0 0 0.78 -213.7 80.15)" id="vG8l0X9aH3GquTklC3eMT"  >
<path style="stroke: none; stroke-width: 1; stroke-dasharray: none; stroke-linecap: butt; stroke-dashoffset: 0; stroke-linejoin: miter; stroke-miterlimit: 4; fill: rgb(0,0,0); fill-rule: nonzero; opacity: 1;" vector-effect="non-scaling-stroke"  transform=" translate(-238.47, -614.59)" d="M 238.469035 614.587166 M 234.003872 614.587166 C 234.00311682625747 616.1829185728378 234.85400698874332 617.6577779533818 236.2358435302356 618.4558723191071 C 237.61768007172788 619.2539666848323 239.32039092827213 619.2539666848323 240.7022274697644 618.4558723191071 C 242.0840640112567 617.6577779533818 242.93495417374254 616.1829185728378 242.934199 614.587166 C 242.93495417374254 612.9914134271622 242.0840640112567 611.5165540466182 240.7022274697644 610.7184596808929 C 239.32039092827213 609.9203653151677 237.61768007172788 609.9203653151677 236.2358435302356 610.7184596808929 C 234.85400698874332 611.5165540466182 234.00311682625747 612.9914134271622 234.003872 614.587166 Z" stroke-linecap="round" />
</g>
		<g transform="matrix(0.78 0 0 0.78 -241.44 -168.68)" id="ZMHffMc4_TW4RV3tkm6e0"  >
<path style="stroke: none; stroke-width: 1; stroke-dasharray: none; stroke-linecap: butt; stroke-dashoffset: 0; stroke-linejoin: miter; stroke-miterlimit: 4; fill: rgb(0,0,0); fill-rule: nonzero; opacity: 1;" vector-effect="non-scaling-stroke"  transform=" translate(-202.96, -296.09)" d="M 202.961716 296.087158 M 196.370966 296.087158 C 196.370966 299.7271287149473 199.3217452850527 302.677908 202.96171600000002 302.677908 C 206.6016867149473 302.677908 209.552466 299.7271287149473 209.552466 296.087158 C 209.552466 292.4471872850527 206.6016867149473 289.496408 202.96171600000002 289.496408 C 199.3217452850527 289.496408 196.370966 292.4471872850527 196.370966 296.087158 Z" stroke-linecap="round" />
</g>
		<g transform="matrix(0.78 0 0 0.78 174.33 56.56)" id="mPSqRR6r4o6qdJVLR8_fl"  >
<path style="stroke: none; stroke-width: 1; stroke-dasharray: none; stroke-linecap: butt; stroke-dashoffset: 0; stroke-linejoin: miter; stroke-miterlimit: 4; fill: rgb(0,0,0); fill-rule: nonzero; opacity: 1;" vector-effect="non-scaling-stroke"  transform=" translate(-735.14, -584.39)" d="M 735.142496 584.394836 M 728.5517460000001 584.394836 C 728.5517460000001 588.0348067149473 731.5025252850528 590.985586 735.1424960000002 590.985586 C 738.7824667149474 590.985586 741.7332460000001 588.0348067149473 741.7332460000001 584.394836 C 741.7332460000001 580.7548652850528 738.7824667149474 577.8040860000001 735.1424960000002 577.8040860000001 C 731.5025252850528 577.8040860000001 728.5517460000001 580.7548652850527 728.5517460000001 584.394836 Z" stroke-linecap="round" />
</g>
		<g transform="matrix(0.78 0 0 0.78 239.78 -260.21)" id="zVZnrLRqpsXcF2sWRffls"  >
<path style="stroke: none; stroke-width: 1; stroke-dasharray: none; stroke-linecap: butt; stroke-dashoffset: 0; stroke-linejoin: miter; stroke-miterlimit: 4; fill: rgb(0,0,0); fill-rule: nonzero; opacity: 1;" vector-effect="non-scaling-stroke"  transform=" translate(-818.91, -178.94)" d="M 818.913722 178.935223 M 812.322972 178.935223 C 812.322054573335 181.2904824776504 813.5780436545672 183.46722459662377 815.6176054278162 184.64511925313388 C 817.6571672010651 185.823013909644 820.170275798935 185.823013909644 822.2098375721839 184.64511925313388 C 824.249399345433 183.46722459662377 825.5053884266651 181.2904824776504 825.5044710000001 178.935223 C 825.5053884266651 176.57996352234963 824.249399345433 174.40322140337625 822.2098375721839 173.22532674686613 C 820.170275798935 172.047432090356 817.6571672010651 172.047432090356 815.6176054278162 173.22532674686613 C 813.5780436545672 174.40322140337625 812.322054573335 176.57996352234963 812.322972 178.935223 Z" stroke-linecap="round" />
</g>
		<g transform="matrix(0.78 0 0 0.78 -213.7 -295.92)" id="ensXMXMj8QJfMo_Ofh0XB"  >
<path style="stroke: none; stroke-width: 1; stroke-dasharray: none; stroke-linecap: butt; stroke-dashoffset: 0; stroke-linejoin: miter; stroke-miterlimit: 4; fill: rgb(251,210,10); fill-rule: nonzero; opacity: 1;" vector-effect="non-scaling-stroke"  transform=" translate(-238.47, -133.22)" d="M 238.469035 158.523045 C 224.43668699999998 158.523045 213.167805 147.254163 213.167805 133.221815 C 213.167805 119.18946699999998 224.43668699999998 107.92058499999999 238.469035 107.92058499999999 C 252.501383 107.92058499999999 263.770265 119.189467 263.770266 133.221815 C 263.770267 147.254163 252.501384 158.523045 238.469035 158.523045 z M 238.469035 122.803782 C 232.72811 122.803782 228.05100199999998 127.48089 228.05100199999998 133.221815 C 228.05100199999998 138.96274 232.72811 143.639848 238.469035 143.639848 C 244.20996 143.639848 248.887068 138.96274 248.887069 133.221815 C 248.887069 127.48191399999999 244.209961 122.803782 238.469035 122.803782 z" stroke-linecap="round" />
</g>
		<g transform="matrix(0.78 0 0 0.78 -200.91 27.82)" id="DYfH_5tKRGXXr7_sIkl__"  >
<path style="stroke: none; stroke-width: 1; stroke-dasharray: none; stroke-linecap: butt; stroke-dashoffset: 0; stroke-linejoin: miter; stroke-miterlimit: 4; fill: rgb(78,155,212); fill-rule: nonzero; opacity: 1;" vector-effect="non-scaling-stroke"  transform=" translate(-254.84, -547.61)" d="M 254.839938 565.472411 C 245.05978499999998 565.472411 236.98030599999998 557.392932 236.98030599999998 547.6127789999999 C 236.98030599999998 537.8326259999999 245.05978499999998 529.7531469999999 254.839938 529.7531479999999 C 264.620091 529.7531479999999 272.69957 537.8326269999999 272.69957 547.6127789999999 C 272.70059399999997 557.392932 264.621115 565.472411 254.839938 565.472411 z M 254.839938 544.636345 C 253.139264 544.636345 251.86350299999998 545.912106 251.86350299999998 547.612779 C 251.86350299999998 549.3134520000001 253.13926399999997 550.5892140000001 254.839938 550.5892140000001 C 256.540612 550.5892140000001 257.816373 549.3134530000001 257.816373 547.612779 C 257.81739699999997 545.912105 256.541636 544.636344 254.839938 544.636345 z" stroke-linecap="round" />
</g>
		<g transform="matrix(0.78 0 0 0.78 -35.88 -1.16)" id="-_PVp67fIoWhLY_f5L7b1"  >
<path style="stroke: none; stroke-width: 1; stroke-dasharray: none; stroke-linecap: butt; stroke-dashoffset: 0; stroke-linejoin: miter; stroke-miterlimit: 4; fill: rgb(255,255,255); fill-rule: nonzero; opacity: 1;" vector-effect="non-scaling-stroke"  transform=" translate(-466.08, -510.51)" d="M 612.249636 518.058329 L 612.249636 165.964644 C 612.249636 117.062857 579.719775 77.51630999999999 539.534324 77.51630999999999 L 392.828963 77.51630999999999 C 352.644536 77.51630999999999 320.113651 117.06285699999998 320.113651 165.964644 L 320.113651 518.058329 L 612.249636 518.058329 z M 319.901707 518.909178 L 319.901707 858.2462760000001 C 319.901707 905.447389 352.432592 943.505207 392.61701899999997 943.505207 L 539.32238 943.505207 C 579.506807 943.505207 612.037692 905.234421 612.037692 858.2462760000001 L 612.037692 518.909178 L 319.901707 518.909178 z" stroke-linecap="round" />
</g>
		<g transform="matrix(0.78 0 0 0.78 14.2 -167.35)" id="PqObqCq-ObbqWvj8M8oFA"  >
<path style="stroke: none; stroke-width: 1; stroke-dasharray: none; stroke-linecap: butt; stroke-dashoffset: 0; stroke-linejoin: miter; stroke-miterlimit: 4; fill: rgb(55,105,165); fill-rule: nonzero; opacity: 1;" vector-effect="non-scaling-stroke"  transform=" translate(-530.18, -297.79)" d="M 676.247588 518.058329 L 676.247588 165.964644 C 676.247588 117.062857 643.717727 77.51630999999999 603.5322759999999 77.51630999999999 L 456.826915 77.51630999999999 C 416.64248799999996 77.51630999999999 384.111603 117.06285699999998 384.111604 165.964644 L 384.111604 518.058329 L 676.247588 518.058329 z" stroke-linecap="round" />
</g>
		<g transform="matrix(0.78 0 0 0.78 14.04 171.26)" id="YwGD7Gvncpxdx5RQD0Z4Y"  >
<path style="stroke: none; stroke-width: 1; stroke-dasharray: none; stroke-linecap: butt; stroke-dashoffset: 0; stroke-linejoin: miter; stroke-miterlimit: 4; fill: rgb(207,49,106); fill-rule: nonzero; opacity: 1;" vector-effect="non-scaling-stroke"  transform=" translate(-529.97, -731.21)" d="M 383.898635 518.909178 L 383.898635 858.2462760000001 C 383.898635 905.447389 416.42952 943.505207 456.613947 943.505207 L 603.319308 943.505207 C 643.503735 943.505207 676.03462 905.234421 676.03462 858.2462760000001 L 676.03462 518.909178 L 383.898635 518.909178 z" stroke-linecap="round" />
</g>
		<g transform="matrix(0.78 0 0 0.78 -18.27 -167.35)" id="33xEMQcng5mY9sC5WD2dk"  >
<path style="stroke: none; stroke-width: 1; stroke-dasharray: none; stroke-linecap: butt; stroke-dashoffset: 0; stroke-linejoin: miter; stroke-miterlimit: 4; fill: rgb(78,155,212); fill-rule: nonzero; opacity: 1;" vector-effect="non-scaling-stroke"  transform=" translate(-488.61, -297.79)" d="M 624.794279 518.058329 L 624.794279 165.964644 C 624.794279 117.062857 594.390004 77.51630999999999 556.9690429999999 77.51630999999999 L 420.256803 77.51630999999999 C 382.835842 77.51630999999999 352.431567 117.06285699999998 352.43156799999997 165.964644 L 352.43156799999997 518.058329 L 624.794279 518.058329 z" stroke-linecap="round" />
</g>
		<g transform="matrix(0.78 0 0 0.78 -18.44 171.26)" id="WINSsnUa4Zi7LQYJ4V6dv"  >
<path style="stroke: none; stroke-width: 1; stroke-dasharray: none; stroke-linecap: butt; stroke-dashoffset: 0; stroke-linejoin: miter; stroke-miterlimit: 4; fill: rgb(240,95,136); fill-rule: nonzero; opacity: 1;" vector-effect="non-scaling-stroke"  transform=" translate(-488.4, -731.21)" d="M 352.2186 518.909178 L 352.2186 858.2462760000001 C 352.2186 905.447389 382.62287499999996 943.505207 420.043835 943.505207 L 556.756075 943.505207 C 594.177036 943.505207 624.581311 905.234421 624.581311 858.2462760000001 L 624.581311 518.909178 L 352.2186 518.909178 z" stroke-linecap="round" />
</g>
		<g transform="matrix(0.78 0 0 0.78 -18.44 300.07)" id="2Cfogl3DuJ8iu4Y49lLf6"  >
<path style="stroke: none; stroke-width: 1; stroke-dasharray: none; stroke-linecap: butt; stroke-dashoffset: 0; stroke-linejoin: miter; stroke-miterlimit: 4; fill: rgb(238,60,122); fill-rule: nonzero; opacity: 1;" vector-effect="non-scaling-stroke"  transform=" translate(-488.4, -896.09)" d="M 352.2186 848.678068 L 352.2186 858.2462760000001 C 352.2186 905.447389 382.62287499999996 943.505207 420.043835 943.505207 L 556.756075 943.505207 C 594.177036 943.505207 624.581311 905.234421 624.581311 858.2462760000001 L 624.581311 848.678068 L 352.2186 848.678068 z" stroke-linecap="round" />
</g>
		<g transform="matrix(0.78 0 0 0.78 -18.27 -302.56)" id="cxSd78IHgobiYXI5QyaQ4"  >
<path style="stroke: none; stroke-width: 1; stroke-dasharray: none; stroke-linecap: butt; stroke-dashoffset: 0; stroke-linejoin: miter; stroke-miterlimit: 4; fill: rgb(64,119,187); fill-rule: nonzero; opacity: 1;" vector-effect="non-scaling-stroke"  transform=" translate(-488.61, -124.72)" d="M 624.794279 172.130481 L 624.794279 162.562273 C 624.794279 115.36116000000001 594.390004 77.303342 556.9690429999999 77.303342 L 420.256803 77.303342 C 382.835842 77.303342 352.431567 115.574128 352.43156799999997 162.562273 L 352.43156799999997 172.130481 L 624.794279 172.130481 z" stroke-linecap="round" />
</g>
		<g transform="matrix(0.78 0 0 0.78 -96.09 181.39)" id="pAJzVKsS5pjfZieo2ZhEm"  >
<path style="stroke: none; stroke-width: 1; stroke-dasharray: none; stroke-linecap: butt; stroke-dashoffset: 0; stroke-linejoin: miter; stroke-miterlimit: 4; fill: rgb(255,255,255); fill-rule: nonzero; opacity: 1;" vector-effect="non-scaling-stroke"  transform=" translate(-389, -744.18)" d="M 389.00168 786.381813 C 384.96245200000004 786.381813 381.560081 782.979442 381.560081 778.940215 L 381.560081 709.414306 C 381.560081 705.375078 384.96245200000004 701.972707 389.00168 701.972707 C 393.040908 701.972707 396.443279 705.375078 396.443278 709.414306 L 396.443278 778.940215 C 396.443278 782.979443 393.04193100000003 786.381814 389.00168 786.381813 z" stroke-linecap="round" />
</g>
		<g transform="matrix(0.78 0 0 0.78 -11.13 138.7)" id="vZsMxPNOZjt2JpS7N8LOi"  >
<path style="stroke: none; stroke-width: 1; stroke-dasharray: none; stroke-linecap: butt; stroke-dashoffset: 0; stroke-linejoin: miter; stroke-miterlimit: 4; fill: rgb(0,0,0); fill-rule: nonzero; opacity: 1;" vector-effect="non-scaling-stroke"  transform=" translate(-497.76, -689.53)" d="M 675.39674 721.957925 C 668.380054 721.957925 662.640153 727.69885 662.6401520000001 734.714512 L 662.6401520000001 854.842882 C 662.6401520000001 896.5160390000001 628.621562 930.534629 586.9484060000001 930.534628 L 408.563009 930.534628 C 366.889852 930.534628 332.871262 896.516038 332.871262 854.842882 L 332.871262 435.775833 C 332.871262 428.759147 327.130337 423.01924599999995 320.114675 423.01924599999995 C 313.09901299999996 423.01924599999995 307.35808799999995 428.76017099999996 307.35808799999995 435.775833 L 307.35808799999995 854.843905 C 307.35808799999995 910.54941 352.858528 956.04985 408.56403299999994 956.04985 L 586.9494299999999 956.04985 C 642.6549349999999 956.04985 688.1553749999999 910.54941 688.1553749999999 854.843905 L 688.1553749999999 734.715536 C 688.153327 727.69885 682.413426 721.957925 675.3967399999999 721.957925 z" stroke-linecap="round" />
</g>
		<g transform="matrix(0.78 0 0 0.78 -11.21 -94.77)" id="gKbJpLOH7eMH9P9wgqVVW"  >
<path style="stroke: none; stroke-width: 1; stroke-dasharray: none; stroke-linecap: butt; stroke-dashoffset: 0; stroke-linejoin: miter; stroke-miterlimit: 4; fill: rgb(0,0,0); fill-rule: nonzero; opacity: 1;" vector-effect="non-scaling-stroke"  transform=" translate(-497.65, -390.7)" d="M 319.901707 315.434495 C 326.918393 315.434495 332.658294 309.69357 332.658294 302.677908 L 332.658294 163.839058 C 332.658294 122.16590099999999 366.67688400000003 88.14731099999999 408.35004100000003 88.147312 L 586.735438 88.147312 C 628.4085950000001 88.147312 662.427185 122.165902 662.427184 163.839058 L 662.427184 505.72665500000005 L 353.069448 505.72665500000005 C 346.05276200000003 505.72665500000005 340.312861 511.46758000000005 340.312861 518.483242 C 340.312861 525.498904 346.053786 531.239829 353.069448 531.239829 L 662.427184 531.239829 L 662.427184 706.010911 C 662.427184 713.027597 668.168109 718.7674979999999 675.183771 718.7674979999999 C 682.199433 718.7674979999999 687.940358 713.026573 687.940359 706.010911 L 687.940359 520.82282 C 688.153327 520.184939 688.153327 519.334091 688.153327 518.4842659999999 C 688.153327 517.6334169999999 688.153327 516.9955369999999 687.940359 516.1457119999999 L 687.940359 163.839058 C 687.940359 108.13355299999999 642.4399189999999 62.633112999999994 586.7344139999999 62.633112999999994 L 408.350041 62.633112999999994 C 352.64453599999996 62.633112999999994 307.144096 108.13355299999999 307.144096 163.839058 L 307.144096 302.677908 C 307.144096 309.694594 312.885021 315.434495 319.901707 315.434495 z" stroke-linecap="round" />
</g>
		<g transform="matrix(0.78 0 0 0.78 -150.08 -110.63)" id="jBU2xKcgaotuQMJGeJ2Tg"  >
<path style="stroke: none; stroke-width: 1; stroke-dasharray: none; stroke-linecap: butt; stroke-dashoffset: 0; stroke-linejoin: miter; stroke-miterlimit: 4; fill: rgb(0,0,0); fill-rule: nonzero; opacity: 1;" vector-effect="non-scaling-stroke"  transform=" translate(-319.9, -370.4)" d="M 319.901707 415.577647 C 326.918393 415.577647 332.658294 409.836722 332.658294 402.82106 L 332.658294 337.973283 C 332.658294 330.956597 326.917369 325.21669599999996 319.901707 325.21669599999996 C 312.88604499999997 325.21669599999996 307.14511999999996 330.95762099999996 307.14511999999996 337.973283 L 307.14511999999996 402.82106 C 307.144096 409.836722 312.88502099999994 415.577647 319.901707 415.577647 z" stroke-linecap="round" />
</g>
		<g transform="matrix(0.78 0 0 0.78 -75.66 -258.88)" id="5hVPfQ3p0KhwORuFky-WH"  >
<path style="stroke: none; stroke-width: 1; stroke-dasharray: none; stroke-linecap: butt; stroke-dashoffset: 0; stroke-linejoin: miter; stroke-miterlimit: 4; fill: rgb(255,255,255); fill-rule: nonzero; opacity: 1;" vector-effect="non-scaling-stroke"  transform=" translate(-415.15, -180.64)" d="M 389.00168 194.668245 C 384.96245200000004 194.668245 381.560081 191.26587400000003 381.560081 187.226647 C 381.560081 154.27085000000002 408.35004100000003 127.48089100000001 441.305838 127.48089000000002 C 445.345066 127.48089000000002 448.747437 130.883261 448.747436 134.922489 C 448.747435 138.96171700000002 445.345065 142.364088 441.305838 142.364087 C 416.642488 142.364087 396.443279 162.562273 396.44327799999996 187.226647 C 396.44327799999996 191.26689800000003 393.041931 194.668246 389.00167999999996 194.668245 z M 389.00168 233.78988 C 384.96245200000004 233.78988 381.560081 230.38750900000002 381.560081 226.34828100000001 L 381.560081 214.65448700000002 C 381.560081 210.615259 384.96245200000004 207.21288800000002 389.00168 207.21288800000002 C 393.040908 207.21288800000002 396.443279 210.615259 396.443278 214.65448700000002 L 396.443278 226.34828100000001 C 396.443278 230.38750900000002 393.04193100000003 233.78988 389.00168 233.78988 z" stroke-linecap="round" />
</g>
</g>
</g>
<g transform="matrix(0.06 0 0 0.06 1050 50)" id="9wYMhX31nup3o6YF7Qbzf"  >
<g style="" vector-effect="non-scaling-stroke"   >
		<g transform="matrix(0.78 0 0 0.78 -30.51 6.53)" id="MBc3DaxcjD4SlZVXQb15D"  >
<path style="stroke: none; stroke-width: 1; stroke-dasharray: none; stroke-linecap: butt; stroke-dashoffset: 0; stroke-linejoin: miter; stroke-miterlimit: 4; fill: rgb(255,255,255); fill-rule: nonzero; opacity: 1;" vector-effect="non-scaling-stroke"  transform=" translate(-472.95, -520.36)" d="M 497.477211 943.093606 C 494.70657700000004 946.71816 500.248869 946.71816 497.477211 943.093606 z M 612.800486 714.152847 L 612.800486 234.739021 C 612.800486 157.57288 550.1294889999999 94.900859 472.96232399999997 94.900859 C 395.796183 94.900859 333.12416199999996 157.571856 333.12416199999996 234.739021 L 333.12416199999996 717.349417 L 334.19002699999993 717.349417 C 332.6982259999999 719.481146 332.6982259999999 722.6787400000001 334.4029949999999 725.0234370000001 L 497.4772109999999 943.093606 L 529.2391569999999 877.225015 L 612.8004859999999 714.152847 z" stroke-linecap="round" />
</g>
		<g transform="matrix(0.78 0 0 0.78 13.55 -82.71)" id="sw-iYAQASY9PF4EmDmo4D"  >
<path style="stroke: none; stroke-width: 1; stroke-dasharray: none; stroke-linecap: butt; stroke-dashoffset: 0; stroke-linejoin: miter; stroke-miterlimit: 4; fill: rgb(55,105,165); fill-rule: nonzero; opacity: 1;" vector-effect="non-scaling-stroke"  transform=" translate(-529.35, -406.13)" d="M 669.290287 717.350441 L 389.402019 717.350441 L 389.402019 234.739021 C 389.402019 157.57288 452.073016 94.900859 529.240181 94.900859 C 606.406322 94.900859 669.078343 157.571856 669.078343 234.739021 L 669.078343 717.349417 L 669.290287 717.350441 z" stroke-linecap="round" />
</g>
		<g transform="matrix(0.78 0 0 0.78 -13.59 -87.71)" id="woXDKx13kryEdEsXRgC3x"  >
<path style="stroke: none; stroke-width: 1; stroke-dasharray: none; stroke-linecap: butt; stroke-dashoffset: 0; stroke-linejoin: miter; stroke-miterlimit: 4; fill: rgb(78,155,212); fill-rule: nonzero; opacity: 1;" vector-effect="non-scaling-stroke"  transform=" translate(-494.6, -399.73)" d="M 494.706577 89.359592 C 424.36156 99.80527000000001 370.43044799999996 157.57288 370.43044799999996 227.491961 L 370.43044799999996 710.102357 L 618.769738 710.102357 L 618.769738 227.491961 C 618.769738 157.57288 565.0515939999999 99.591278 494.706577 89.35959199999999 z" stroke-linecap="round" />
</g>
		<g transform="matrix(0.78 0 0 0.78 -13.68 -253)" id="hwm0iBkz2rkhE38ESWwdr"  >
<path style="stroke: none; stroke-width: 1; stroke-dasharray: none; stroke-linecap: butt; stroke-dashoffset: 0; stroke-linejoin: miter; stroke-miterlimit: 4; fill: rgb(64,119,187); fill-rule: nonzero; opacity: 1;" vector-effect="non-scaling-stroke"  transform=" translate(-494.49, -188.16)" d="M 618.769738 286.965364 L 618.769738 227.49196100000003 C 618.769738 157.57288000000003 564.838626 99.59127800000003 494.493609 89.35959200000002 C 424.148592 99.80527000000002 370.21748 157.57288000000003 370.21748 227.49196100000003 L 370.21748 286.965364 L 618.769738 286.965364 z" stroke-linecap="round" />
</g>
		<g transform="matrix(0.78 0 0 0.78 6.6 248.42)" id="_WgoNkAmO85dKFvAV1kbA"  >
<path style="stroke: none; stroke-width: 1; stroke-dasharray: none; stroke-linecap: butt; stroke-dashoffset: 0; stroke-linejoin: miter; stroke-miterlimit: 4; fill: rgb(255,228,184); fill-rule: nonzero; opacity: 1;" vector-effect="non-scaling-stroke"  transform=" translate(-520.45, -829.98)" d="M 663.535028 714.152847 L 370.429424 714.152847 L 474.24218099999996 877.0120469999999 L 506.004128 943.0936059999999 C 508.77476199999995 946.7171359999999 503.23247 946.7171359999999 506.004128 943.0936059999999 L 669.077319 725.023437 C 672.487881 720.5480339999999 669.290287 714.152847 663.535028 714.152847 z" stroke-linecap="round" />
</g>
		<g transform="matrix(0.78 0 0 0.78 -8.93 312.12)" id="qKgcIlsEKB-VNCZtxzO_C"  >
<path style="stroke: none; stroke-width: 1; stroke-dasharray: none; stroke-linecap: butt; stroke-dashoffset: 0; stroke-linejoin: miter; stroke-miterlimit: 4; fill: rgb(64,119,187); fill-rule: nonzero; opacity: 1;" vector-effect="non-scaling-stroke"  transform=" translate(-500.57, -911.52)" d="M 445.890796 877.225015 L 495.132513 943.093606 C 496.41591960748985 944.804278030782 498.429738886629 945.8109981284352 500.5683205 945.8109981284352 C 502.70690211337103 945.8109981284352 504.7207213925102 944.804278030782 506.00412800000004 943.093606 L 555.245844 877.225015 L 445.890796 877.225015 z" stroke-linecap="round" />
</g>
		<g transform="matrix(0.78 0 0 0.78 69.59 221.63)" id="hsKIJKUYClGD9rzRy87v0"  >
<path style="stroke: none; stroke-width: 1; stroke-dasharray: none; stroke-linecap: butt; stroke-dashoffset: 0; stroke-linejoin: miter; stroke-miterlimit: 4; fill: rgb(231,208,169); fill-rule: nonzero; opacity: 1;" vector-effect="non-scaling-stroke"  transform=" translate(-601.08, -795.69)" d="M 618.769738 714.152847 L 539.684835 877.225015 L 561.001104 877.225015 L 662.4691630000001 733.550354 L 662.4691630000001 714.152847 z" stroke-linecap="round" />
</g>
		<g transform="matrix(0.78 0 0 0.78 -139.75 -82.71)" id="Op3OEdnK4dMIRfCTQJl_8"  >
<path style="stroke: none; stroke-width: 1; stroke-dasharray: none; stroke-linecap: butt; stroke-dashoffset: 0; stroke-linejoin: miter; stroke-miterlimit: 4; fill: rgb(0,0,0); fill-rule: nonzero; opacity: 1;" vector-effect="non-scaling-stroke"  transform=" translate(-333.13, -406.13)" d="M 333.125186 368.821924 C 326.091094 368.821924 320.334811 374.57718300000005 320.334811 381.612299 L 320.334811 430.641048 C 320.334811 437.67514 326.09007 443.431423 333.125186 443.431424 C 340.16030199999994 443.431425 345.91556099999997 437.67616499999997 345.91556099999997 430.641048 L 345.91556099999997 381.612299 C 345.91556099999997 374.577183 340.16030199999994 368.821924 333.125186 368.821924 z" stroke-linecap="round" />
</g>
		<g transform="matrix(0.78 0 0 0.78 -9.01 3.72)" id="W8suTVQQxjmfstN0AmKU1"  >
<path style="stroke: none; stroke-width: 1; stroke-dasharray: none; stroke-linecap: butt; stroke-dashoffset: 0; stroke-linejoin: miter; stroke-miterlimit: 4; fill: rgb(0,0,0); fill-rule: nonzero; opacity: 1;" vector-effect="non-scaling-stroke"  transform=" translate(-500.47, -516.76)" d="M 332.912218 365.411362 C 339.94631 365.411362 345.702593 359.656103 345.702593 352.620986 L 345.702593 301.6745 L 631.346121 301.6745 C 638.380213 301.6745 644.1364960000001 295.919241 644.1364970000001 288.88412500000004 C 644.1364980000001 281.8490090000001 638.381238 276.09375000000006 631.346121 276.09375000000006 L 345.70259300000004 276.09375000000006 L 345.70259300000004 255.20341700000006 C 345.70259300000004 169.93629500000006 415.19471400000003 100.44417400000006 500.46183600000006 100.44417400000006 C 585.7289580000001 100.44417400000006 655.221079 169.93629500000006 655.221079 255.20341700000006 L 655.221079 561.5243090000001 C 655.221079 568.5584010000001 660.976338 574.3146840000002 668.0114550000001 574.3146850000002 C 675.045547 574.3146850000002 680.8018300000001 568.5594260000001 680.8018300000001 561.5243090000001 L 680.8018300000001 255.203417 C 680.8018300000001 155.867087 599.7981660000002 74.86444700000001 500.4628600000001 74.86444700000001 C 401.12755400000003 74.86444700000001 320.1228660000001 155.868111 320.1228660000001 255.203417 L 320.1228660000001 352.620986 C 320.12184200000013 359.655078 325.8781250000001 365.411361 332.9122180000001 365.411362 z M 668.224423 577.938215 C 661.190331 577.938215 655.434048 583.693474 655.434047 590.72859 L 655.434047 697.3119810000001 L 370.429424 697.3119810000001 C 363.395332 697.3119810000001 357.639049 703.0672400000001 357.639048 710.1023570000001 C 357.639048 717.1364490000001 363.394307 722.8927320000001 370.429424 722.8927320000001 L 653.9422460000001 722.8927320000001 C 652.2364530000001 729.9268240000001 649.2528510000001 736.7489720000001 644.776425 742.7172000000002 L 506.004128 930.304254 C 504.08536699999996 932.648951 501.74066999999997 933.074888 500.461836 933.074888 C 499.183003 933.074888 497.051274 932.648952 495.345481 930.517222 L 356.574208 742.930168 C 349.540116 733.3373859999999 345.702594 721.826868 345.702593 710.102357 L 345.702593 459.417345 C 345.702593 452.383253 339.94733399999996 446.62697000000003 332.912218 446.62697000000003 C 325.87710200000004 446.62697000000003 320.121843 452.38222900000005 320.121842 459.417345 L 320.121842 710.102357 C 320.121842 727.369159 325.451165 743.783065 335.89582 758.065241 L 474.66811700000005 945.652295 C 480.63634500000006 953.966244 490.0161580000001 958.655639 500.24784400000004 958.655639 L 500.46081200000003 958.655639 C 510.69249800000006 958.655639 520.072312 953.966244 526.4675000000001 945.652295 L 665.2397970000001 758.065241 C 675.471483 743.996033 680.8008060000001 727.369159 680.8008060000001 710.3163490000001 L 680.8008060000001 590.9415590000001 C 680.9195079673988 587.5319450357393 679.6467551760984 584.220617724351 677.2749304398637 581.7682708967324 C 674.9031057036292 579.3159240691136 671.6360991373721 577.9333697928039 668.2244230000001 577.9382150000001 z" stroke-linecap="round" />
</g>
		<g transform="matrix(0.78 0 0 0.78 -67.14 -81.21)" id="zsTugqi4QhDtd0jeOzyle"  >
<path style="stroke: none; stroke-width: 1; stroke-dasharray: none; stroke-linecap: butt; stroke-dashoffset: 0; stroke-linejoin: miter; stroke-miterlimit: 4; fill: rgb(255,255,255); fill-rule: nonzero; opacity: 1;" vector-effect="non-scaling-stroke"  transform=" translate(-426.07, -408.04)" d="M 452.285984 145.209465 C 419.245205 145.209465 392.385621 172.068025 392.385621 205.109828 C 392.385621 209.160318 395.79618300000004 212.57088 399.846673 212.57088 C 403.897163 212.57088 407.307725 209.160318 407.307726 205.109828 C 407.307726 180.38197399999999 427.55813 160.13157 452.285984 160.13156899999998 C 456.336474 160.13156899999998 459.747036 156.721007 459.747036 152.670517 C 459.747036 148.620027 456.33647399999995 145.209465 452.285984 145.209465 z M 399.846673 225.360232 C 395.796183 225.360232 392.385621 228.770794 392.385621 232.821284 L 392.385621 244.545795 C 392.385621 248.596285 395.79618300000004 252.006847 399.846673 252.006847 C 403.897163 252.006847 407.307725 248.596285 407.307726 244.545795 L 407.307726 232.821284 C 407.307726 228.770794 403.897164 225.360232 399.846673 225.360232 z M 399.846673 586.252164 C 395.796183 586.252164 392.385621 589.662726 392.385621 593.713216 L 392.385621 663.419329 C 392.385621 667.4698189999999 395.79618300000004 670.8803809999999 399.846673 670.8803809999999 C 403.897163 670.8803809999999 407.307725 667.4698189999999 407.307726 663.419329 L 407.307726 593.713216 C 407.307726 589.662726 403.897164 586.252164 399.846673 586.252164 z" stroke-linecap="round" />
</g>
		<g transform="matrix(0.78 0 0 0.78 173.01 -303.21)" id="AYTG6_gr1pG7LSmfikTLz"  >
<path style="stroke: none; stroke-width: 1; stroke-dasharray: none; stroke-linecap: butt; stroke-dashoffset: 0; stroke-linejoin: miter; stroke-miterlimit: 4; fill: rgb(251,210,10); fill-rule: nonzero; opacity: 1;" vector-effect="non-scaling-stroke"  transform=" translate(-733.45, -123.89)" d="M 748.37519 116.432144 L 740.914138 116.432144 L 740.914138 108.971091 C 740.914138 104.920601 737.503576 101.510039 733.453085 101.510039 C 729.402594 101.510039 725.992033 104.920601 725.992033 108.971091 L 725.992033 116.432144 L 718.530981 116.432144 C 714.480491 116.432144 711.069929 119.84270599999999 711.069928 123.89319599999999 C 711.069927 127.94368599999999 714.48049 131.35424799999998 718.530981 131.35424799999998 L 725.992033 131.35424799999998 L 725.992033 138.81530099999998 C 725.992033 142.86579099999997 729.402595 146.27635299999997 733.453085 146.27635299999997 C 737.503575 146.27635299999997 740.914137 142.86579099999997 740.914138 138.81530099999998 L 740.914138 131.35424799999998 L 748.37519 131.35424799999998 C 752.4256799999999 131.35424799999998 755.836242 127.94368599999999 755.836242 123.89319599999999 C 755.836242 119.84270599999999 752.4256799999999 116.432144 748.37519 116.432144 z" stroke-linecap="round" />
</g>
		<g transform="matrix(0.78 0 0 0.78 -193.2 172.09)" id="RYyIveo7_hyKLWU_LikDj"  >
<path style="stroke: none; stroke-width: 1; stroke-dasharray: none; stroke-linecap: butt; stroke-dashoffset: 0; stroke-linejoin: miter; stroke-miterlimit: 4; fill: rgb(241,103,35); fill-rule: nonzero; opacity: 1;" vector-effect="non-scaling-stroke"  transform=" translate(-264.7, -732.27)" d="M 279.620011 724.810469 L 272.158958 724.810469 L 272.158958 717.349417 C 272.158958 713.298927 268.74839599999996 709.888365 264.697906 709.888365 C 260.647416 709.888365 257.236854 713.298927 257.236853 717.349417 L 257.236853 724.810469 L 249.775801 724.810469 C 245.725311 724.810469 242.314749 728.221031 242.314749 732.271522 C 242.314749 736.322013 245.725311 739.732574 249.775801 739.732574 L 257.236853 739.732574 L 257.236853 747.193626 C 257.236853 751.244116 260.647415 754.654678 264.697906 754.654679 C 268.74839699999995 754.65468 272.158958 751.244117 272.158958 747.193626 L 272.158958 739.732574 L 279.620011 739.732574 C 283.670501 739.732574 287.081063 736.322012 287.081063 732.271522 C 287.081063 728.221032 283.67050099999994 724.81047 279.620011 724.810469 z" stroke-linecap="round" />
</g>
		<g transform="matrix(0.78 0 0 0.78 123.71 263.35)" id="YxCm8PVZTSu7Iw7mrpavr"  >
<path style="stroke: none; stroke-width: 1; stroke-dasharray: none; stroke-linecap: butt; stroke-dashoffset: 0; stroke-linejoin: miter; stroke-miterlimit: 4; fill: rgb(78,155,212); fill-rule: nonzero; opacity: 1;" vector-effect="non-scaling-stroke"  transform=" translate(-670.36, -849.09)" d="M 685.277233 841.62657 L 677.816181 841.62657 L 677.816181 834.165517 C 677.816181 830.115027 674.405619 826.704465 670.355128 826.704465 C 666.3046370000001 826.704465 662.894076 830.115027 662.894076 834.165517 L 662.894076 841.62657 L 655.433024 841.62657 C 651.3825340000001 841.62657 647.971972 845.037132 647.971971 849.087622 C 647.97197 853.138112 651.3825330000001 856.548674 655.433024 856.548675 L 662.894076 856.548675 L 662.894076 864.009727 C 662.894076 868.060217 666.3046380000001 871.470779 670.355128 871.470779 C 674.405618 871.470779 677.81618 868.060217 677.816181 864.009727 L 677.816181 856.548675 L 685.277233 856.548675 C 689.327723 856.548675 692.738285 853.138113 692.738285 849.087622 C 692.738285 845.037131 689.327723 841.62657 685.277233 841.62657 z" stroke-linecap="round" />
</g>
		<g transform="matrix(0.78 0 0 0.78 190.16 -52.24)" id="N-ufGyeHk3ziNnp3r2lp0"  >
<path style="stroke: none; stroke-width: 1; stroke-dasharray: none; stroke-linecap: butt; stroke-dashoffset: 0; stroke-linejoin: miter; stroke-miterlimit: 4; fill: rgb(241,103,35); fill-rule: nonzero; opacity: 1;" vector-effect="non-scaling-stroke"  transform=" translate(-755.41, -445.14)" d="M 755.409282 467.091366 C 743.258835 467.091366 733.453085 457.285616 733.453085 445.135169 C 733.453085 432.98472200000003 743.258835 423.17897200000004 755.409282 423.17897200000004 C 767.559729 423.17897200000004 777.3654789999999 432.98472200000003 777.3654789999999 445.135169 C 777.3654789999999 457.285616 767.559729 467.091366 755.409282 467.091366 z M 755.409282 438.101077 C 751.572784 438.101077 748.37519 441.29867099999996 748.37519 445.13516899999996 C 748.37519 448.97166699999997 751.572784 452.16926099999995 755.409282 452.16926099999995 C 759.24578 452.16926099999995 762.443374 448.97166699999997 762.443374 445.13516899999996 C 762.444398 441.29867099999996 759.246804 438.101077 755.409282 438.101077 z" stroke-linecap="round" />
</g>
		<g transform="matrix(0.78 0 0 0.78 182.34 -2.78)" id="UIx0RoAsHNiSH_dSf3U2r"  >
<path style="stroke: none; stroke-width: 1; stroke-dasharray: none; stroke-linecap: butt; stroke-dashoffset: 0; stroke-linejoin: miter; stroke-miterlimit: 4; fill: rgb(0,0,0); fill-rule: nonzero; opacity: 1;" vector-effect="non-scaling-stroke"  transform=" translate(-745.39, -508.45)" d="M 745.390564 508.446094 M 740.9141380000001 508.446094 C 740.9133818747259 510.04587108953143 741.7664185447878 511.5244496839521 743.1517402613861 512.3245565827077 C 744.5370619779843 513.1246634814632 746.2440670220159 513.1246634814632 747.6293887386141 512.3245565827077 C 749.0147104552124 511.5244496839521 749.8677471252743 510.04587108953143 749.8669910000001 508.446094 C 749.8677471252743 506.8463169104686 749.0147104552124 505.3677383160479 747.6293887386141 504.5676314172923 C 746.2440670220159 503.76752451853673 744.5370619779843 503.76752451853673 743.1517402613861 504.5676314172923 C 741.7664185447878 505.3677383160479 740.9133818747259 506.8463169104686 740.9141380000001 508.446094 Z" stroke-linecap="round" />
</g>
		<g transform="matrix(0.78 0 0 0.78 217.98 -303.21)" id="pAvBt10uOUw695kLCdN2N"  >
<path style="stroke: none; stroke-width: 1; stroke-dasharray: none; stroke-linecap: butt; stroke-dashoffset: 0; stroke-linejoin: miter; stroke-miterlimit: 4; fill: rgb(0,0,0); fill-rule: nonzero; opacity: 1;" vector-effect="non-scaling-stroke"  transform=" translate(-791.01, -123.89)" d="M 791.008751 123.892172 M 786.532324 123.892172 C 786.532324 126.36443436583082 788.5364886341692 128.36859900000002 791.0087510000001 128.36859900000002 C 793.4810133658308 128.36859900000002 795.485178 126.36443436583082 795.485178 123.892172 C 795.485178 121.41990963416919 793.4810133658308 119.415745 791.0087510000001 119.415745 C 788.5364886341692 119.415745 786.532324 121.41990963416919 786.532324 123.892172 Z" stroke-linecap="round" />
</g>
		<g transform="matrix(0.78 0 0 0.78 -119.59 -349.17)" id="EZJuedhTGl6zjGrgMeHFd"  >
<path style="stroke: none; stroke-width: 1; stroke-dasharray: none; stroke-linecap: butt; stroke-dashoffset: 0; stroke-linejoin: miter; stroke-miterlimit: 4; fill: rgb(0,0,0); fill-rule: nonzero; opacity: 1;" vector-effect="non-scaling-stroke"  transform=" translate(-358.92, -65.06)" d="M 358.918905 65.058697 M 354.442478 65.058697 C 354.442478 67.53095936583081 356.44664263416917 69.535124 358.918905 69.535124 C 361.3911673658308 69.535124 363.395332 67.53095936583081 363.395332 65.058697 C 363.395332 62.58643463416919 361.3911673658308 60.582269999999994 358.918905 60.582269999999994 C 356.44664263416917 60.582269999999994 354.442478 62.58643463416919 354.442478 65.058697 Z" stroke-linecap="round" />
</g>
		<g transform="matrix(0.78 0 0 0.78 -173.05 237.7)" id="XA0l1XNFyNjjFK_6F8E9s"  >
<path style="stroke: none; stroke-width: 1; stroke-dasharray: none; stroke-linecap: butt; stroke-dashoffset: 0; stroke-linejoin: miter; stroke-miterlimit: 4; fill: rgb(0,0,0); fill-rule: nonzero; opacity: 1;" vector-effect="non-scaling-stroke"  transform=" translate(-290.49, -816.26)" d="M 290.491625 816.259811 M 286.015198 816.259811 C 286.015198 818.7320733658308 288.01936263416917 820.736238 290.491625 820.736238 C 292.96388736583083 820.736238 294.968052 818.7320733658308 294.968052 816.259811 C 294.968052 813.7875486341692 292.96388736583083 811.7833840000001 290.491625 811.7833840000001 C 288.01936263416917 811.7833840000001 286.015198 813.7875486341692 286.015198 816.259811 Z" stroke-linecap="round" />
</g>
		<g transform="matrix(0.78 0 0 0.78 -82.96 312.15)" id="aKjaim5FNm8nkXTjr1vRE"  >
<path style="stroke: none; stroke-width: 1; stroke-dasharray: none; stroke-linecap: butt; stroke-dashoffset: 0; stroke-linejoin: miter; stroke-miterlimit: 4; fill: rgb(0,0,0); fill-rule: nonzero; opacity: 1;" vector-effect="non-scaling-stroke"  transform=" translate(-405.82, -911.55)" d="M 405.815925 911.545651 M 401.339498 911.545651 C 401.3387418747258 913.1454280895314 402.1917785447877 914.6240066839521 403.57710026138597 915.4241135827077 C 404.9624219779842 916.2242204814632 406.6694270220158 916.2242204814632 408.054748738614 915.4241135827077 C 409.4400704552123 914.6240066839521 410.29310712527416 913.1454280895314 410.292351 911.545651 C 410.29310712527416 909.9458739104687 409.44007045521226 908.467295316048 408.054748738614 907.6671884172923 C 406.6694270220158 906.8670815185368 404.9624219779842 906.8670815185368 403.57710026138597 907.6671884172923 C 402.1917785447877 908.467295316048 401.3387418747258 909.9458739104687 401.339498 911.545651 Z" stroke-linecap="round" />
</g>
		<g transform="matrix(0.78 0 0 0.78 -143.74 -344.01)" id="814ZdhL4FtIrhqLhMJa29"  >
<path style="stroke: none; stroke-width: 1; stroke-dasharray: none; stroke-linecap: butt; stroke-dashoffset: 0; stroke-linejoin: miter; stroke-miterlimit: 4; fill: rgb(0,0,0); fill-rule: nonzero; opacity: 1;" vector-effect="non-scaling-stroke"  transform=" translate(-328.01, -71.67)" d="M 328.009855 71.666853 M 321.401699 71.666853 C 321.401699 75.31643678330286 324.36027121669713 78.27500900000001 328.009855 78.27500900000001 C 331.6594387833029 78.27500900000001 334.618011 75.31643678330286 334.618011 71.666853 C 334.618011 68.01726921669714 331.6594387833029 65.058697 328.009855 65.058697 C 324.36027121669713 65.058697 321.401699 68.01726921669714 321.401699 71.666853 Z" stroke-linecap="round" />
</g>
		<g transform="matrix(0.78 0 0 0.78 -193.04 -280.23)" id="NKG0VDGxh3w7h-OH-zirr"  >
<path style="stroke: none; stroke-width: 1; stroke-dasharray: none; stroke-linecap: butt; stroke-dashoffset: 0; stroke-linejoin: miter; stroke-miterlimit: 4; fill: rgb(251,210,10); fill-rule: nonzero; opacity: 1;" vector-effect="non-scaling-stroke"  transform=" translate(-264.91, -153.31)" d="M 264.911898 178.67618 C 250.84269 178.67618 239.545139 167.378629 239.545139 153.309421 C 239.545139 139.24021299999998 250.84269 127.94266199999998 264.911898 127.94266199999998 C 278.981106 127.94266199999998 290.278657 139.24021299999998 290.278657 153.309421 C 290.2991353111909 160.04336077704357 287.63315030753523 166.5074003111249 282.8715138093301 171.26903680933006 C 278.10987731112493 176.03067330753524 271.6458377770436 178.69665831119093 264.911898 178.67618 z M 264.911898 142.86476699999997 C 259.156639 142.86476699999997 254.46622000000002 147.55416199999996 254.46622000000002 153.31044499999996 C 254.46622000000002 159.06570399999995 259.155615 163.75612299999995 264.911898 163.75612299999995 C 270.668181 163.75612299999995 275.357576 159.06672799999996 275.357576 153.31044499999996 C 275.357576 147.55416199999996 270.667157 142.86476699999997 264.911898 142.86476699999997 z" stroke-linecap="round" />
</g>
		<g transform="matrix(0.78 0 0 0.78 -207.03 -63.56)" id="viitHzcQgYBd7V1d0jdTE"  >
<path style="stroke: none; stroke-width: 1; stroke-dasharray: none; stroke-linecap: butt; stroke-dashoffset: 0; stroke-linejoin: miter; stroke-miterlimit: 4; fill: rgb(78,155,212); fill-rule: nonzero; opacity: 1;" vector-effect="non-scaling-stroke"  transform=" translate(-247.01, -430.64)" d="M 247.006191 448.545731 C 237.200441 448.545731 229.100484 440.445774 229.100485 430.640024 C 229.100486 420.834274 237.20044199999998 412.734317 247.006191 412.734318 C 256.81194000000005 412.73431899999997 264.911898 420.834275 264.911898 430.640024 C 264.911898 440.445773 256.811941 448.545731 247.006191 448.545731 z M 247.006191 427.655399 C 245.300398 427.655399 244.021565 428.934232 244.021566 430.640024 C 244.021567 432.34581599999996 245.300399 433.62465 247.006191 433.62465 C 248.711983 433.62465 249.990817 432.34581699999995 249.990817 430.640024 C 249.990817 428.934231 248.71096 427.655398 247.006191 427.655399 z" stroke-linecap="round" />
</g>
</g>
</g>
<g transform="matrix(0.06 0 0 0.06 320 50)" id="6UDi82qL8sseMQzaUa3_w"  >
<g style="" vector-effect="non-scaling-stroke"   >
		<g transform="matrix(0.78 0 0 0.78 0 0)" id="5SjJpuj0YjbhFidpcupD3"  >
<path style="stroke: none; stroke-width: 1; stroke-dasharray: none; stroke-linecap: butt; stroke-dashoffset: 0; stroke-linejoin: miter; stroke-miterlimit: 4; fill: rgb(54,136,255); fill-rule: nonzero; opacity: 1;" vector-effect="non-scaling-stroke"  transform=" translate(-512, -512)" d="M 512 1024 C 229.7 1024 0 794.3 0 512 C 0 229.70000000000005 229.7 0 512 0 C 794.3 0 1024 229.7 1024 512 C 1024 794.3 794.3 1024 512 1024 z M 512 85.29999999999995 C 276.7 85.3 85.3 276.7 85.3 512 C 85.3 747.3 276.7 938.7 512 938.7 C 747.3 938.7 938.7 747.3 938.7 512 C 938.7 276.70000000000005 747.3 85.3 512 85.3 z" stroke-linecap="round" />
</g>
		<g transform="matrix(0.78 0 0 0.78 28.2 2.15)" id="P3g4LYza3WzWpFM5QSo-3"  >
<path style="stroke: none; stroke-width: 1; stroke-dasharray: none; stroke-linecap: butt; stroke-dashoffset: 0; stroke-linejoin: miter; stroke-miterlimit: 4; fill: rgb(95,99,121); fill-rule: nonzero; opacity: 1;" vector-effect="non-scaling-stroke"  transform=" translate(-548.1, -514.75)" d="M 434.8 688.2 C 427.40000000000003 688.2 420.1 686.3000000000001 413.5 682.5 C 400.3 674.9 392.2 660.8 392.2 645.5 L 392.2 384 C 392.2 368.8 400.3 354.7 413.5 347 C 426.7 339.4 443 339.4 456.2 347 L 682.7 477.8 C 695.9000000000001 485.40000000000003 704 499.5 704 514.8 C 704 530 695.9 544.0999999999999 682.7 551.8 L 456.1 682.5 C 449.5 686.4 442.20000000000005 688.2 434.8 688.2 z M 477.5 457.90000000000003 L 477.5 571.7 L 576 514.8000000000001 L 477.5 457.9000000000001 z" stroke-linecap="round" />
</g>
</g>
</g>
<g transform="matrix(0.06 0 0 0.06 385 50)" id="UBR8GU7FaD8gpx23RXVbe"  >
<g style="" vector-effect="non-scaling-stroke"   >
		<g transform="matrix(0.78 0 0 0.78 0 0)" id="CiAFrYuA_qi5n_cHaVQ2q"  >
<path style="stroke: none; stroke-width: 1; stroke-dasharray: none; stroke-linecap: butt; stroke-dashoffset: 0; stroke-linejoin: miter; stroke-miterlimit: 4; fill: rgb(54,136,255); fill-rule: nonzero; opacity: 1;" vector-effect="non-scaling-stroke"  transform=" translate(-512, -512)" d="M 512 1024 C 229.7 1024 0 794.3 0 512 C 0 229.70000000000005 229.7 0 512 0 C 794.3 0 1024 229.7 1024 512 C 1024 794.3 794.3 1024 512 1024 z M 512 85.29999999999995 C 276.7 85.3 85.3 276.7 85.3 512 C 85.3 747.3 276.7 938.7 512 938.7 C 747.3 938.7 938.7 747.3 938.7 512 C 938.7 276.70000000000005 747.3 85.3 512 85.3 z" stroke-linecap="round" />
</g>
		<g transform="matrix(0.78 0 0 0.78 0 0)" id="L5iFYftrkK-jXjrwjTihZ"  >
<path style="stroke: none; stroke-width: 1; stroke-dasharray: none; stroke-linecap: butt; stroke-dashoffset: 0; stroke-linejoin: miter; stroke-miterlimit: 4; fill: rgb(95,99,121); fill-rule: nonzero; opacity: 1;" vector-effect="non-scaling-stroke"  transform=" translate(-512, -512)" d="M 640 682.7 L 384 682.7 C 360.4 682.7 341.3 663.6 341.3 640 L 341.3 384 C 341.3 360.4 360.40000000000003 341.3 384 341.3 L 640 341.3 C 663.6 341.3 682.7 360.40000000000003 682.7 384 L 682.7 640 C 682.7 663.6 663.6 682.7 640 682.7 z M 426.7 597.3000000000001 L 597.4 597.3000000000001 L 597.4 426.7 L 426.7 426.7 L 426.7 597.3 z" stroke-linecap="round" />
</g>
</g>
</g>
<g transform="matrix(0.12 0 0 0.1 135 50)" id="_EfaLllQljbdVVLFYaTL9"  >
<path style="stroke: none; stroke-width: 1; stroke-dasharray: none; stroke-linecap: butt; stroke-dashoffset: 0; stroke-linejoin: miter; stroke-miterlimit: 4; fill: rgb(36,136,255); fill-rule: nonzero; opacity: 1;" vector-effect="non-scaling-stroke"  transform=" translate(-247.15, -247.15)" d="M 456.098 140.898 L 212.156 0 L 212.156 212.5 L 58.203 123.579 L 38.197 158.21699999999998 L 192.167 247.14799999999997 L 38.197 336.07899999999995 L 58.203 370.7169999999999 L 212.155 281.79599999999994 L 212.155 494.29599999999994 L 456.098 353.3979999999999 L 272.14300000000003 247.1479999999999 L 456.098 140.898 z M 252.156 69.296 L 376.123 140.89800000000002 L 252.156 212.5 L 252.156 69.296 z M 376.123 353.398 L 252.156 425 L 252.156 281.796 L 376.123 353.398 z" stroke-linecap="round" />
</g>
<g transform="matrix(0.09 0 0 0.09 55 50)" id="ycwZB9qP5T-w3Mpu7Dhd6"  >
<g style="" vector-effect="non-scaling-stroke"   >
		<g transform="matrix(1.56 0 0 1.56 0 0)" id="CpapsvcoldN9Nj5DjFdoo"  >
<path style="stroke: none; stroke-width: 1; stroke-dasharray: none; stroke-linecap: butt; stroke-dashoffset: 0; stroke-linejoin: miter; stroke-miterlimit: 4; fill: rgb(141,195,233); fill-rule: nonzero; opacity: 1;" vector-effect="non-scaling-stroke"  transform=" translate(-256, -256)" d="M 494.933 438.72 L 17.067 438.72 C 7.641 438.72 0 431.078 0 421.653 L 0 90.348 C 0 80.923 7.641 73.281 17.067 73.281 L 382.793 73.281 C 387.319 73.281 391.661 75.07900000000001 394.86 78.28 L 507.002 190.421 C 510.20300000000003 193.62199999999999 512.001 197.962 512.001 202.489 L 512.001 421.65200000000004 C 512 431.078 504.359 438.72 494.933 438.72 z" stroke-linecap="round" />
</g>
		<g transform="matrix(1.56 0 0 1.56 200 0)" id="7_09sNgWSLEjivmSmZEvm"  >
<path style="stroke: none; stroke-width: 1; stroke-dasharray: none; stroke-linecap: butt; stroke-dashoffset: 0; stroke-linejoin: miter; stroke-miterlimit: 4; fill: rgb(72,174,226); fill-rule: nonzero; opacity: 1;" vector-effect="non-scaling-stroke"  transform=" translate(-384, -256)" d="M 507.001 190.421 L 394.859 78.281 C 391.65799999999996 75.08000000000001 387.318 73.28200000000001 382.792 73.28200000000001 L 256 73.28200000000001 L 256 438.72 L 494.933 438.72 C 504.358 438.72 512 431.079 512 421.653 L 512 202.489 C 512 197.963 510.202 193.622 507.001 190.421 z" stroke-linecap="round" />
</g>
		<g transform="matrix(1.56 0 0 1.56 0 110.96)" id="oLse91eYyGyBpMr2nFSKB"  >
<path style="stroke: none; stroke-width: 1; stroke-dasharray: none; stroke-linecap: butt; stroke-dashoffset: 0; stroke-linejoin: miter; stroke-miterlimit: 4; fill: rgb(72,174,226); fill-rule: nonzero; opacity: 1;" vector-effect="non-scaling-stroke"  transform=" translate(-256, -327.02)" d="M 511.514 425.632 L 345.599 221.816 C 338.538 213.143 325.284 213.155 318.233 221.816 L 256 298.266 L 193.767 221.81800000000004 C 186.706 213.14500000000004 173.453 213.15600000000003 166.401 221.81800000000004 L 0.486 425.632 C 2.2809999999999997 433.135 9.015 438.72 17.067 438.72 L 494.934 438.72 C 502.987 438.72 509.72 433.134 511.514 425.632 z" stroke-linecap="round" />
</g>
		<g transform="matrix(1.56 0 0 1.56 -250.35 -135.85)" id="abjXfH1e6Xcl-GwUdviCu"  >
<path style="stroke: none; stroke-width: 1; stroke-dasharray: none; stroke-linecap: butt; stroke-dashoffset: 0; stroke-linejoin: miter; stroke-miterlimit: 4; fill: rgb(255,228,156); fill-rule: nonzero; opacity: 1;" vector-effect="non-scaling-stroke"  transform=" translate(-95.78, -169.06)" d="M 95.776 219.321 C 68.06 219.321 45.510999999999996 196.773 45.510999999999996 169.057 C 45.510999999999996 141.34099999999998 68.059 118.79299999999998 95.776 118.79299999999998 C 123.491 118.79299999999998 146.041 141.34099999999998 146.041 169.057 C 146.039 196.772 123.491 219.321 95.776 219.321 z" stroke-linecap="round" />
</g>
		<g transform="matrix(1.56 0 0 1.56 199.62 110.96)" id="q4DhJiKYldX9G_6HIVogb"  >
<path style="stroke: none; stroke-width: 1; stroke-dasharray: none; stroke-linecap: butt; stroke-dashoffset: 0; stroke-linejoin: miter; stroke-miterlimit: 4; fill: rgb(55,151,211); fill-rule: nonzero; opacity: 1;" vector-effect="non-scaling-stroke"  transform=" translate(-383.76, -327.02)" d="M 345.599 221.816 C 338.538 213.143 325.284 213.155 318.233 221.816 L 256 298.266 L 256 438.72 L 494.933 438.72 C 502.986 438.72 509.71999999999997 433.13500000000005 511.514 425.632 L 345.599 221.816 z" stroke-linecap="round" />
</g>
		<g transform="matrix(1.56 0 0 1.56 294.61 -180.11)" id="aUzyFN386eV6xvyHpOItW"  >
<path style="stroke: none; stroke-width: 1; stroke-dasharray: none; stroke-linecap: butt; stroke-dashoffset: 0; stroke-linejoin: miter; stroke-miterlimit: 4; fill: rgb(55,151,211); fill-rule: nonzero; opacity: 1;" vector-effect="non-scaling-stroke"  transform=" translate(-444.55, -140.73)" d="M 394.86 78.281 C 391.659 75.08000000000001 387.319 73.28200000000001 382.793 73.28200000000001 L 377.104 73.28200000000001 L 377.104 191.111 C 377.104 200.536 384.745 208.178 394.171 208.178 L 512 208.178 L 512 202.489 C 512 197.963 510.202 193.621 507.001 190.421 L 394.86 78.281 z" stroke-linecap="round" />
</g>
</g>
</g>
<g transform="matrix(0.18 -0.25 -0.02 -0.02 944.66 50.74)" id="5EOtyEUIRNa-GShwOdQLr"  >
<path style="stroke: rgb(32,125,224); stroke-width: 1; stroke-dasharray: none; stroke-linecap: butt; stroke-dashoffset: 0; stroke-linejoin: miter; stroke-miterlimit: 4; fill: rgb(252,181,71); fill-rule: nonzero; opacity: 1;" vector-effect="non-scaling-stroke"  transform=" translate(0, 0)" d="M -97.16599 -97.16599 L -8.404139999999998 -97.16599 L 97.166 -97.16599 L 97.166 97.16599 L -97.16597999999999 97.16599 z" stroke-linecap="round" />
</g>
<g transform="matrix(1 0 0 0.03 1237.5 67.5)" id="WM6g_s0ZX6-99TEail85N"  >
<path style="stroke: rgb(52,98,144); stroke-width: 0; stroke-dasharray: none; stroke-linecap: butt; stroke-dashoffset: 0; stroke-linejoin: miter; stroke-miterlimit: 4; fill: rgb(142,13,254); fill-rule: nonzero; opacity: 1;" vector-effect="non-scaling-stroke"  transform=" translate(0, 0)" d="M -97.16599 -97.16599 L 97.16599 -97.16599 L 97.16599 97.16599 L -97.16599 97.16599 z" stroke-linecap="round" />
</g>
<g transform="matrix(0.07 0 0 0.07 504 50)" id="7_8OjAqGAjNo_TKslpavt"  >
<g style="" vector-effect="non-scaling-stroke"   >
		<g transform="matrix(12.5 0 0 12.5 0.01 -0.01)" id="vXt_malIO913R2u6rnkiY"  >
<path style="stroke: none; stroke-width: 1; stroke-dasharray: none; stroke-linecap: butt; stroke-dashoffset: 0; stroke-linejoin: miter; stroke-miterlimit: 4; fill: rgb(0,116,255); fill-rule: nonzero; opacity: 1;" vector-effect="non-scaling-stroke"  transform=" translate(-32, -32)" d="M 32 60 C 19.18072951159619 60.001392647153715 7.99775908845179 51.29694659549398 4.85270514324414 38.86946360511895 C 1.7076511980364906 26.441980614743926 7.403870901047593 13.465876051115998 18.680601488786312 7.36923393878196 C 29.95733207652503 1.272591826447922 43.93410073904086 3.6127085555220972 52.609999999999985 13.04999999999999 C 53.11789186161272 13.571225445736175 53.3025706380159 14.327196954894344 53.092207446700264 15.023887299390955 C 52.881844255384635 15.720577643887566 52.30964541678586 16.248012627766027 51.59816169688874 16.40105191911519 C 50.88667797699161 16.554091210464357 50.14821874056626 16.308577200170163 49.67 15.760000000000002 C 41.404308729106674 6.796396187763207 27.716279756762127 5.4919966566574985 17.90636356234155 12.73308702668555 C 8.096447367920973 19.9741773967136 5.310131679312022 33.43894773147625 11.440602954124536 43.97864257701929 C 17.57107422893705 54.51833742256234 30.652635535727505 58.7534701313656 41.796906131546905 53.80644290528092 C 52.94117672736631 48.85941567919622 58.57481656519709 36.31646158288787 54.870000000000005 24.700000000000014 C 54.53310630260322 23.647897551572342 55.112897551572345 22.521893697396784 56.165000000000006 22.185000000000002 C 57.21710244842767 21.84810630260322 58.343106302603225 22.427897551572343 58.68000000000001 23.480000000000004 C 61.40024579362155 31.995856867158103 59.890581034456034 41.298742764104745 54.6169574144087 48.51736100264031 C 49.34333379436136 55.73597924117587 40.93977344548283 60.002470441147075 32 60 Z" stroke-linecap="round" />
</g>
		<g transform="matrix(12.5 0 0 12.5 59.25 0)" id="xGSxu2TLGUrfVn_fyE-Mp"  >
<path style="stroke: none; stroke-width: 1; stroke-dasharray: none; stroke-linecap: butt; stroke-dashoffset: 0; stroke-linejoin: miter; stroke-miterlimit: 4; fill: rgb(255,179,0); fill-rule: nonzero; opacity: 1;" vector-effect="non-scaling-stroke"  transform=" translate(-36.74, -32)" d="M 45.74 34 L 27.740000000000002 34 C 26.635430500338416 34 25.740000000000002 33.10456949966159 25.740000000000002 32 C 25.740000000000002 30.895430500338414 26.635430500338416 30 27.740000000000002 30 L 45.74 30 C 46.84456949966159 30 47.74 30.895430500338414 47.74 32 C 47.74 33.10456949966159 46.84456949966159 34 45.74 34 Z" stroke-linecap="round" />
</g>
		<g transform="matrix(12.5 0 0 12.5 -118.69 0.02)" id="dBy-rHvBwwuo_MIcZa1jD"  >
<path style="stroke: none; stroke-width: 1; stroke-dasharray: none; stroke-linecap: butt; stroke-dashoffset: 0; stroke-linejoin: miter; stroke-miterlimit: 4; fill: rgb(255,179,0); fill-rule: nonzero; opacity: 1;" vector-effect="non-scaling-stroke"  transform=" translate(-22.51, -32)" d="M 26.74 42.49 C 26.21042315048035 42.48776721050229 25.703350290376896 42.275587786771055 25.33 41.9 L 16.839999999999996 33.41 C 16.064552810578398 32.62992509137815 16.064552810578398 31.370074908621845 16.839999999999996 30.589999999999996 L 25.33 22.099999999999994 C 26.11148292101057 21.318517078989423 27.378517078989425 21.318517078989423 28.159999999999997 22.099999999999994 C 28.941482921010568 22.881482921010566 28.941482921010568 24.14851707898942 28.159999999999997 24.929999999999993 L 21.09 32 L 28.16 39.07 C 28.736919897544908 39.642180911795194 28.910323712951033 40.506533575491645 28.5987419004272 41.256963011288484 C 28.287160087903366 42.00739244708533 27.552530144705607 42.4947252460983 26.740000000000002 42.49 Z" stroke-linecap="round" />
</g>
</g>
</g>
<g transform="matrix(-0.07 0 0 0.07 574 50)" id="4YUQtKvjlAwCQMgBWdjId"  >
<g style="" vector-effect="non-scaling-stroke"   >
		<g transform="matrix(12.5 0 0 12.5 0.01 -0.01)" id="w7v1QkOpP8Fk1Hz4iLUIg"  >
<path style="stroke: none; stroke-width: 1; stroke-dasharray: none; stroke-linecap: butt; stroke-dashoffset: 0; stroke-linejoin: miter; stroke-miterlimit: 4; fill: rgb(0,116,255); fill-rule: nonzero; opacity: 1;" vector-effect="non-scaling-stroke"  transform=" translate(-32, -32)" d="M 32 60 C 19.18072951159619 60.001392647153715 7.99775908845179 51.29694659549398 4.85270514324414 38.86946360511895 C 1.7076511980364906 26.441980614743926 7.403870901047593 13.465876051115998 18.680601488786312 7.36923393878196 C 29.95733207652503 1.272591826447922 43.93410073904086 3.6127085555220972 52.609999999999985 13.04999999999999 C 53.11789186161272 13.571225445736175 53.3025706380159 14.327196954894344 53.092207446700264 15.023887299390955 C 52.881844255384635 15.720577643887566 52.30964541678586 16.248012627766027 51.59816169688874 16.40105191911519 C 50.88667797699161 16.554091210464357 50.14821874056626 16.308577200170163 49.67 15.760000000000002 C 41.404308729106674 6.796396187763207 27.716279756762127 5.4919966566574985 17.90636356234155 12.73308702668555 C 8.096447367920973 19.9741773967136 5.310131679312022 33.43894773147625 11.440602954124536 43.97864257701929 C 17.57107422893705 54.51833742256234 30.652635535727505 58.7534701313656 41.796906131546905 53.80644290528092 C 52.94117672736631 48.85941567919622 58.57481656519709 36.31646158288787 54.870000000000005 24.700000000000014 C 54.53310630260322 23.647897551572342 55.112897551572345 22.521893697396784 56.165000000000006 22.185000000000002 C 57.21710244842767 21.84810630260322 58.343106302603225 22.427897551572343 58.68000000000001 23.480000000000004 C 61.40024579362155 31.995856867158103 59.890581034456034 41.298742764104745 54.6169574144087 48.51736100264031 C 49.34333379436136 55.73597924117587 40.93977344548283 60.002470441147075 32 60 Z" stroke-linecap="round" />
</g>
		<g transform="matrix(12.5 0 0 12.5 59.25 0)" id="fahK9QTX4ZSfl1DM1ekvF"  >
<path style="stroke: none; stroke-width: 1; stroke-dasharray: none; stroke-linecap: butt; stroke-dashoffset: 0; stroke-linejoin: miter; stroke-miterlimit: 4; fill: rgb(255,179,0); fill-rule: nonzero; opacity: 1;" vector-effect="non-scaling-stroke"  transform=" translate(-36.74, -32)" d="M 45.74 34 L 27.740000000000002 34 C 26.635430500338416 34 25.740000000000002 33.10456949966159 25.740000000000002 32 C 25.740000000000002 30.895430500338414 26.635430500338416 30 27.740000000000002 30 L 45.74 30 C 46.84456949966159 30 47.74 30.895430500338414 47.74 32 C 47.74 33.10456949966159 46.84456949966159 34 45.74 34 Z" stroke-linecap="round" />
</g>
		<g transform="matrix(12.5 0 0 12.5 -118.69 0.02)" id="jZcNr9AbV6g9aU_2tHnB6"  >
<path style="stroke: none; stroke-width: 1; stroke-dasharray: none; stroke-linecap: butt; stroke-dashoffset: 0; stroke-linejoin: miter; stroke-miterlimit: 4; fill: rgb(255,179,0); fill-rule: nonzero; opacity: 1;" vector-effect="non-scaling-stroke"  transform=" translate(-22.51, -32)" d="M 26.74 42.49 C 26.21042315048035 42.48776721050229 25.703350290376896 42.275587786771055 25.33 41.9 L 16.839999999999996 33.41 C 16.064552810578398 32.62992509137815 16.064552810578398 31.370074908621845 16.839999999999996 30.589999999999996 L 25.33 22.099999999999994 C 26.11148292101057 21.318517078989423 27.378517078989425 21.318517078989423 28.159999999999997 22.099999999999994 C 28.941482921010568 22.881482921010566 28.941482921010568 24.14851707898942 28.159999999999997 24.929999999999993 L 21.09 32 L 28.16 39.07 C 28.736919897544908 39.642180911795194 28.910323712951033 40.506533575491645 28.5987419004272 41.256963011288484 C 28.287160087903366 42.00739244708533 27.552530144705607 42.4947252460983 26.740000000000002 42.49 Z" stroke-linecap="round" />
</g>
</g>
</g>
<g transform="matrix(1.66 0 0 1.46 1160 43)" id="oj80B3E3kLqcDh1bZCI_1"  >
<path style="stroke: none; stroke-width: 1; stroke-dasharray: none; stroke-linecap: butt; stroke-dashoffset: 0; stroke-linejoin: miter; stroke-miterlimit: 4; fill: rgb(32,125,224); fill-rule: nonzero; opacity: 1;" vector-effect="non-scaling-stroke"  transform=" translate(-12.07, -12.07)" d="M 23.831 6.516 L 0 6.516 L 0 4.786 L 23.831 4.786 L 23.831 6.516 z M 23.831 1.775 L 0 1.775 L 0 2.468 L 23.831 2.468 L 23.831 1.775 z M 0.304 8.813 L 0.304 12.459 L 24.136 12.459 L 24.136 8.813 L 0.304 8.813 z M 0 22.361 L 23.831 22.361 L 23.831 14.2 L 0 14.2 L 0 22.361 z" stroke-linecap="round" />
</g>
<g transform="matrix(0.83 0 0 0.86 825 50)" id="QgbsCeR05emG7awE9L4wC"  >
<path style="stroke: rgb(32,125,224); stroke-width: 1; stroke-dasharray: none; stroke-linecap: butt; stroke-dashoffset: 0; stroke-linejoin: miter; stroke-miterlimit: 4; fill: rgb(252,181,71); fill-rule: nonzero; opacity: 1;" vector-effect="non-scaling-stroke"  transform=" translate(-32, -32)" d="M 62 25.2 L 39.1 25.2 L 32 3 L 24.9 25.2 L 2 25.2 L 20.5 38.9 L 13.5 61 L 32 47.3 L 50.5 61 L 43.4 38.8 L 62 25.2 z" stroke-linecap="round" />
</g>
</svg>