<?xml version="1.0" encoding="UTF-8" standalone="no" ?>
<!DOCTYPE svg PUBLIC "-//W3C//DTD SVG 1.1//EN" "http://www.w3.org/Graphics/SVG/1.1/DTD/svg11.dtd">
<svg xmlns="http://www.w3.org/2000/svg" xmlns:xlink="http://www.w3.org/1999/xlink" version="1.1" width="1920" height="1000" viewBox="0 0 1920 1000" xml:space="preserve">
<desc>Created with Fabric.js 4.6.0</desc>
<defs>
</defs>
<g transform="matrix(4.25 0 0 4.63 1507.5 550)" id="O5v2gM2LhXU7429Ew271f"  >
<path style="stroke: rgb(62,194,236); stroke-opacity: 0.58; stroke-width: 0; stroke-dasharray: none; stroke-linecap: butt; stroke-dashoffset: 0; stroke-linejoin: miter; stroke-miterlimit: 4; fill: rgb(178,242,255); fill-rule: nonzero; opacity: 0.8;" vector-effect="non-scaling-stroke"  transform=" translate(0, 0)" d="M -97.16599 -97.16599 L 97.16599 -97.16599 L 97.16599 97.16599 L -97.16599 97.16599 z" stroke-linecap="round" />
</g>
<g transform="matrix(0.17 -0.3 0.3 0.17 1235.65 869.86)" id="OKmn8lGobnVRDhf42JMN8"  >
<path style="stroke: none; stroke-width: 1; stroke-dasharray: none; stroke-linecap: butt; stroke-dashoffset: 0; stroke-linejoin: miter; stroke-miterlimit: 4; fill: rgb(35,31,32); fill-rule: nonzero; opacity: 1;" vector-effect="non-scaling-stroke"  transform=" translate(-300, -300)" d="M 40.389 450.868 C -13.565999999999995 413.1 15.860000000000003 355.229 47.014 293.96500000000003 C 70.21600000000001 248.32000000000002 92.134 205.21500000000003 79.37700000000001 169.56900000000002 C 72.77400000000002 151.11300000000003 57.641000000000005 136.91700000000003 33.11200000000001 126.17000000000002 C 30.506000000000007 125.02500000000002 27.46100000000001 126.21500000000002 26.32100000000001 128.82100000000003 C 25.17600000000001 131.42900000000003 26.364000000000008 134.47200000000004 28.97000000000001 135.61400000000003 C 50.759000000000015 145.16300000000004 64.07300000000001 157.40600000000003 69.66400000000002 173.04500000000002 C 80.92800000000001 204.50600000000003 59.984000000000016 245.68900000000002 37.81500000000001 289.289 C 6.035000000000011 351.789 -26.819999999999993 416.409 34.48100000000001 459.32399999999996 C 50.91400000000001 470.82899999999995 68.81400000000001 476.57599999999996 87.67600000000002 476.57599999999996 C 107.28800000000001 476.57599999999996 127.93700000000001 470.35799999999995 149.05800000000002 457.943 C 162.55400000000003 450.003 175.74900000000002 439.64799999999997 188.07800000000003 427.763 C 201.68100000000004 434.313 218.53100000000003 439.616 239.38400000000001 442.842 C 248.036 444.18 256.502 444.812 264.844 444.812 C 414.577 444.785 514.385 239.304 534.5 194.15200000000002 L 590.69 270.45300000000003 C 592.215 272.54 595.057 273.16100000000006 597.326 271.91900000000004 C 599.595 270.672 600.585 267.93800000000005 599.648 265.53000000000003 L 545.763 126.71800000000002 C 545.142 125.11000000000001 543.7510000000001 123.92200000000001 542.071 123.55000000000001 C 540.38 123.17000000000002 538.62 123.671 537.383 124.86900000000001 L 419.25300000000004 238.592 C 417.23100000000005 240.53400000000002 417.134 243.739 419.033 245.8 C 420.15700000000004 247.014 421.725 247.56 423.25600000000003 247.443 C 421.81100000000004 249.38000000000002 421.891 252.104 423.53900000000004 253.955 C 425.36400000000003 255.994 428.46200000000005 256.261 430.59200000000004 254.57000000000002 L 522.8280000000001 181.50900000000001 C 525.0640000000001 179.74 525.4390000000001 176.49800000000002 523.6730000000001 174.264 C 521.9020000000002 172.038 518.6650000000001 171.644 516.4280000000001 173.424 L 494.1150000000001 191.09900000000002 L 535.1520000000002 150.062 C 537.1210000000002 148.09300000000002 537.1700000000002 144.91400000000002 535.2590000000001 142.883 C 534.9810000000001 142.586 534.6700000000001 142.32600000000002 534.3440000000002 142.11 L 538.9500000000002 137.674 L 576.0010000000002 233.11200000000002 L 537.4800000000002 180.80300000000003 C 536.3720000000003 179.29900000000004 534.5200000000002 178.50700000000003 532.7010000000002 178.74300000000002 C 530.8550000000002 178.96800000000002 529.2710000000003 180.17400000000004 528.5590000000002 181.89400000000003 C 527.4140000000002 184.67100000000002 412.0670000000002 459.11300000000006 240.9670000000002 432.64200000000005 C 222.8170000000002 429.8380000000001 207.9730000000002 425.4080000000001 195.83700000000022 419.96000000000004 C 236.5800000000002 377.29100000000005 265.9250000000002 318.89500000000004 261.8470000000002 279.586 C 259.9530000000002 261.365 250.8240000000002 248.99900000000002 235.4340000000002 243.81400000000002 C 211.7450000000002 235.841 186.03800000000018 243.23600000000002 164.89600000000019 264.127 C 136.53600000000017 292.145 124.67700000000019 336.249 136.04800000000017 371.394 C 141.45800000000017 388.106 153.28400000000016 407.722 178.58400000000017 422.684 C 167.72100000000017 432.85600000000005 156.0450000000002 441.857 143.82400000000018 449.048 C 117.54 464.503 78.264 477.378 40.389 450.868 z M 145.863 368.222 C 135.642 336.63399999999996 146.446 296.849 172.142 271.464 C 185.712 258.06 201.257 251.018 216.492 251.018 C 221.779 251.018 227.023 251.863 232.13799999999998 253.586 C 243.57799999999997 257.444 250.123 266.546 251.58399999999997 280.651 C 255.10499999999996 314.577 227.63299999999998 372.807 186.25799999999998 415.161 C 161.933 401.543 150.813 383.51 145.863 368.222 z" stroke-linecap="round" />
</g>
</svg>